<?xml version="1.0" standalone="no"?>
<!DOCTYPE svg PUBLIC "-//W3C//DTD SVG 20010904//EN"
 "http://www.w3.org/TR/2001/REC-SVG-20010904/DTD/svg10.dtd">
<svg version="1.0" xmlns="http://www.w3.org/2000/svg"
 width="16.000000pt" height="14.000000pt" viewBox="0 0 16.000000 14.000000"
 preserveAspectRatio="xMidYMid meet">

<g transform="translate(0.000000,14.000000) scale(0.100000,-0.100000)"
fill="#000000" stroke="none">
<path d="M0 130 c0 -6 33 -10 80 -10 47 0 80 4 80 10 0 6 -33 10 -80 10 -47 0
-80 -4 -80 -10z"/>
<path d="M0 70 c0 -6 33 -10 80 -10 47 0 80 4 80 10 0 6 -33 10 -80 10 -47 0
-80 -4 -80 -10z"/>
<path d="M0 10 c0 -6 33 -10 80 -10 47 0 80 4 80 10 0 6 -33 10 -80 10 -47 0
-80 -4 -80 -10z"/>
</g>
</svg>
